<?xml version="1.0" encoding="UTF-8" standalone="no"?>
<!-- Created with Inkscape (http://www.inkscape.org/) -->

<svg
   version="1.1"
   id="svg2"
   width="2560"
   height="1440"
   viewBox="0 0 2560 1440"
   sodipodi:docname="Hankooktire_Ci(blackbg).ai"
   xmlns:inkscape="http://www.inkscape.org/namespaces/inkscape"
   xmlns:sodipodi="http://sodipodi.sourceforge.net/DTD/sodipodi-0.dtd"
   xmlns="http://www.w3.org/2000/svg"
   xmlns:svg="http://www.w3.org/2000/svg">
  <defs
     id="defs6">
    <clipPath
       clipPathUnits="userSpaceOnUse"
       id="clipPath18">
      <path
         d="M 0,1080 H 1920 V 0 H 0 Z"
         id="path16" />
    </clipPath>
  </defs>
  <sodipodi:namedview
     id="namedview4"
     pagecolor="#ffffff"
     bordercolor="#000000"
     borderopacity="0.25"
     inkscape:showpageshadow="2"
     inkscape:pageopacity="0.0"
     inkscape:pagecheckerboard="0"
     inkscape:deskcolor="#d1d1d1" />
  <g
     id="g8"
     inkscape:groupmode="layer"
     inkscape:label="Hankooktire_Ci(blackbg)"
     transform="matrix(1.3333333,0,0,-1.3333333,0,1440)">
    <path
       d="M 0,0 H 1920 V 1080 H 0 Z"
       style="fill:#231f20;fill-opacity:1;fill-rule:nonzero;stroke:none"
       id="path10" />
    <g
       id="g12">
      <g
         id="g14"
         clip-path="url(#clipPath18)">
        <g
           id="g20"
           transform="translate(924.3082,512.2794)">
          <path
             d="m 0,0 c -1.213,0.78 -3.4,1.152 -4.794,1.152 -3.568,0 -6.143,-1.004 -7.348,-5.13 l -1.43,-4.943 c -0.924,-3.085 -0.14,-4.683 2.771,-4.683 2.173,0 5.095,0.706 7.397,1.895 z m -17.858,-9.219 1.643,5.613 c 1.709,5.947 5.552,8.029 11.128,8.029 1.927,0 4.92,-0.558 5.976,-1.263 l 2.348,7.953 4.388,1.117 -8.268,-28.771 h -3.691 l 0.036,1.598 c -2.635,-1.264 -4.86,-1.97 -7.648,-1.97 -5.7,0 -7.118,3.569 -5.912,7.694"
             style="fill:#ffffff;fill-opacity:1;fill-rule:nonzero;stroke:none"
             id="path22" />
        </g>
        <g
           id="g24"
           transform="translate(946.3319,512.9489)">
          <path
             d="m 0,0 c -2.512,-0.149 -5.429,-0.782 -7.916,-2.268 l -4.257,-14.942 h -4.1 l 5.897,20.517 h 3.649 L -6.921,1.226 c 1.553,1.04 4.532,2.527 8.018,2.527 z"
             style="fill:#ffffff;fill-opacity:1;fill-rule:nonzero;stroke:none"
             id="path26" />
        </g>
        <g
           id="g28"
           transform="translate(956.9419,520.0854)">
          <path
             d="m 0,0 h -4.1 l 1.165,4.126 h 4.1 z m -7,-24.347 h -4.099 l 5.897,20.518 h 4.1 z"
             style="fill:#ffffff;fill-opacity:1;fill-rule:nonzero;stroke:none"
             id="path30" />
        </g>
        <g
           id="g32"
           transform="translate(966.0555,495.7386)">
          <path
             d="m 0,0 h -4.756 l -1.73,20.518 h 4.225 L -1.634,7.881 c 0.027,-1.302 0.052,-2.64 0.129,-4.387 h 0.041 c 1.111,1.747 1.866,3.085 2.741,4.387 l 7.9,12.637 h 4.388 z"
             style="fill:#ffffff;fill-opacity:1;fill-rule:nonzero;stroke:none"
             id="path34" />
        </g>
        <g
           id="g36"
           transform="translate(988.1827,520.0854)">
          <path
             d="m 0,0 h -4.1 l 1.165,4.126 h 4.1 z m -7,-24.347 h -4.099 l 5.897,20.518 h 4.1 z"
             style="fill:#ffffff;fill-opacity:1;fill-rule:nonzero;stroke:none"
             id="path38" />
        </g>
        <g
           id="g40"
           transform="translate(1005.5783,495.7386)">
          <path
             d="m 0,0 h -4.1 l 3.972,13.864 c 0.711,2.417 0.605,3.754 -2.101,3.754 -1.968,0 -4.677,-0.595 -7.274,-1.895 L -13.982,0 h -4.099 l 5.897,20.518 h 3.649 L -8.57,18.92 c 2.427,1.226 5.07,2.044 7.448,2.044 4.961,0 6.415,-2.528 5.316,-6.319 z"
             style="fill:#ffffff;fill-opacity:1;fill-rule:nonzero;stroke:none"
             id="path42" />
        </g>
        <g
           id="g44"
           transform="translate(1030.3827,511.9072)">
          <path
             d="m 0,0 c -0.833,0.929 -3.086,1.524 -5.505,1.524 -2.747,0 -5.328,-1.077 -6.533,-5.204 l -1.318,-4.534 c -0.982,-3.309 -0.317,-4.871 2.922,-4.871 2.337,0 4.758,0.595 7.082,1.525 z m -17.638,-8.474 1.486,5.166 c 1.704,5.874 5.475,8.103 10.888,8.103 2.132,0 4.876,-0.594 6.262,-1.822 L 1.714,4.349 H 5.363 L -0.856,-17.21 c -1.48,-5.055 -4.225,-7.248 -11.482,-7.248 -1.886,0 -4.285,0.26 -5.699,0.557 l 0.93,3.16 c 1.452,-0.334 3.488,-0.521 4.923,-0.521 4.592,0 6.382,0.93 7.337,4.424 l 0.557,2.007 c -2.206,-1.004 -4.83,-1.562 -7.454,-1.562 -5.74,0 -7.158,3.57 -5.894,7.919"
             style="fill:#ffffff;fill-opacity:1;fill-rule:nonzero;stroke:none"
             id="path46" />
        </g>
        <g
           id="g48"
           transform="translate(1063.8232,507.819)">
          <path
             d="m 0,0 0.06,0.26 c 0.839,3.048 0.156,5.465 -3.862,5.465 -3.813,0 -6.041,-2.417 -6.881,-5.465 L -10.743,0 Z m 3.146,-2.937 h -14.761 l -0.224,-0.818 c -0.982,-3.308 -0.525,-5.463 4.846,-5.463 1.722,0 4.196,0.186 6.544,0.891 l -0.924,-3.085 c -2.064,-0.743 -4.381,-1.04 -6.268,-1.04 -7.257,0 -9.9,3.085 -8.027,9.59 l 0.661,2.305 c 1.98,6.839 6.271,9.44 11.683,9.44 5.904,0 9.059,-2.825 6.964,-10.11 z"
             style="fill:#ffffff;fill-opacity:1;fill-rule:nonzero;stroke:none"
             id="path50" />
        </g>
        <g
           id="g52"
           transform="translate(1099.1362,495.7386)">
          <path
             d="m 0,0 h -4.101 l 4.028,14.05 c 0.711,2.416 0.303,3.568 -2.034,3.568 -1.639,0 -3.778,-0.631 -6.289,-1.895 L -8.569,15.054 -12.875,0 h -4.1 l 4.028,14.05 c 0.711,2.416 0.303,3.568 -2.075,3.568 -1.64,0 -3.652,-0.595 -6.249,-1.895 L -25.75,0 h -4.099 l 5.897,20.518 h 3.649 l -0.035,-1.598 c 2.22,1.189 4.783,2.044 6.874,2.044 2.87,0 4.492,-0.818 5.032,-2.379 2.856,1.486 5.915,2.379 7.842,2.379 4.675,0 5.998,-2.082 4.896,-5.91 z"
             style="fill:#ffffff;fill-opacity:1;fill-rule:nonzero;stroke:none"
             id="path54" />
        </g>
        <g
           id="g56"
           transform="translate(1122.7839,507.3358)">
          <path
             d="M 0,0 C 1.268,4.424 -0.41,6.133 -3.854,6.133 -7.298,6.133 -9.925,4.424 -11.193,0 l -0.767,-2.602 c -1.269,-4.424 0.451,-6.133 3.813,-6.133 3.485,0 6.112,1.709 7.381,6.133 z m 3.323,-2.751 c -1.711,-5.984 -5.803,-9.218 -11.994,-9.218 -6.151,0 -9.089,3.531 -7.377,9.515 l 0.765,2.602 c 1.711,5.985 5.803,9.218 11.954,9.218 6.191,0 9.129,-3.531 7.417,-9.514 z"
             style="fill:#ffffff;fill-opacity:1;fill-rule:nonzero;stroke:none"
             id="path58" />
        </g>
        <g
           id="g60"
           transform="translate(1145.3408,513.0228)">
          <path
             d="m 0,0 h -5.863 l -3.311,-11.56 c -0.553,-1.933 -0.326,-2.751 1.397,-2.751 1.271,0 2.72,0.186 3.856,0.595 l -0.924,-3.085 c -1.194,-0.633 -3.096,-0.855 -4.409,-0.855 -3.607,0 -5.231,1.896 -4.294,5.166 L -9.963,0 h -3.609 l 0.977,3.233 h 3.608 l 1.213,4.238 4.389,1.116 -1.502,-5.354 h 5.863 z"
             style="fill:#ffffff;fill-opacity:1;fill-rule:nonzero;stroke:none"
             id="path62" />
        </g>
        <g
           id="g64"
           transform="translate(1156.1915,520.0854)">
          <path
             d="m 0,0 h -4.1 l 1.165,4.126 h 4.1 z m -6.999,-24.347 h -4.1 l 5.897,20.518 h 4.1 z"
             style="fill:#ffffff;fill-opacity:1;fill-rule:nonzero;stroke:none"
             id="path66" />
        </g>
        <g
           id="g68"
           transform="translate(1173.1295,507.3358)">
          <path
             d="m 0,0 c 1.268,4.424 -0.41,6.133 -3.854,6.133 -3.444,0 -6.071,-1.709 -7.34,-6.133 l -0.766,-2.602 c -1.269,-4.424 0.451,-6.133 3.813,-6.133 3.485,0 6.112,1.709 7.381,6.133 z m 3.323,-2.751 c -1.711,-5.984 -5.804,-9.218 -11.994,-9.218 -6.151,0 -9.089,3.531 -7.377,9.515 l 0.764,2.602 c 1.712,5.985 5.804,9.218 11.955,9.218 6.191,0 9.129,-3.531 7.417,-9.514 z"
             style="fill:#ffffff;fill-opacity:1;fill-rule:nonzero;stroke:none"
             id="path70" />
        </g>
        <g
           id="g72"
           transform="translate(1197.1613,495.7386)">
          <path
             d="m 0,0 h -4.1 l 3.972,13.864 c 0.711,2.417 0.604,3.754 -2.101,3.754 -1.968,0 -4.677,-0.595 -7.274,-1.895 L -13.982,0 h -4.099 l 5.897,20.518 h 3.649 L -8.57,18.92 c 2.427,1.226 5.07,2.044 7.448,2.044 4.961,0 6.415,-2.528 5.316,-6.319 z"
             style="fill:#ffffff;fill-opacity:1;fill-rule:nonzero;stroke:none"
             id="path74" />
        </g>
        <g
           id="g76"
           transform="translate(1191.2505,558.7562)">
          <path
             d="M 0,0 10.388,-24.503 H -7.116 l -9.408,25.523 -7.211,-25.523 h -16.83 l 14.691,51.114 H -9.062 L -15.523,4.443 c 0,0 10.318,5.436 18.443,22.168 H 20.711 C 12.172,8.299 0,0 0,0"
             style="fill:#ffffff;fill-opacity:1;fill-rule:nonzero;stroke:none"
             id="path78" />
        </g>
        <g
           id="g80"
           transform="translate(981.9842,570.7127)">
          <path
             d="m 0,0 -10.276,-36.459 h -16.821 l 9.31,33.041 c 0.779,2.842 1.313,5.116 0.188,6.188 -1.008,0.96 -2.469,1.08 -4.273,1.08 l -8.729,-0.261 -11.505,-40.048 h -16.812 l 14.631,51.096 c 1.996,0.102 16.946,0.81 31.795,1.156 5.696,0.143 9.621,-1.139 11.697,-3.803 C 1.254,9.351 1.523,5.312 0,0"
             style="fill:#ffffff;fill-opacity:1;fill-rule:nonzero;stroke:none"
             id="path82" />
        </g>
        <g
           id="g84"
           transform="translate(1022.0236,558.7562)">
          <path
             d="M 0,0 10.388,-24.503 H -7.116 l -9.408,25.523 -7.211,-25.523 h -16.829 l 14.69,51.114 H -9.061 L -15.523,4.443 c 0,0 10.318,5.436 18.443,22.168 H 20.711 C 12.172,8.299 0,0 0,0"
             style="fill:#ffffff;fill-opacity:1;fill-rule:nonzero;stroke:none"
             id="path86" />
        </g>
        <g
           id="g88"
           transform="translate(1075.4012,562.7951)">
          <path
             d="m 0,0 -1.774,-6.164 c -2.344,-8.144 -6.11,-11.618 -12.611,-11.618 -2.926,0 -4.881,0.708 -5.985,2.15 -1.425,1.872 -1.461,4.941 -0.11,9.654 l 1.774,6.172 c 2.345,8.136 6.111,11.61 12.611,11.61 2.926,0 4.881,-0.699 5.985,-2.141 C 1.315,7.782 1.352,4.713 0,0 m 15.842,17.505 c -3.147,4.148 -9.308,6.247 -18.304,6.247 -17.454,0 -28.534,-7.774 -32.924,-23.103 l -2.149,-7.462 c -2.086,-7.26 -1.672,-12.867 1.213,-16.661 3.147,-4.148 9.308,-6.248 18.304,-6.248 17.454,0 28.534,7.774 32.924,23.103 l 2.149,7.462 c 2.087,7.252 1.672,12.858 -1.213,16.662"
             style="fill:#ffffff;fill-opacity:1;fill-rule:nonzero;stroke:none"
             id="path90" />
        </g>
        <g
           id="g92"
           transform="translate(1134.479,562.7951)">
          <path
             d="m 0,0 -1.774,-6.164 c -2.336,-8.144 -6.11,-11.618 -12.611,-11.618 -2.926,0 -4.881,0.708 -5.977,2.15 -1.425,1.872 -1.461,4.941 -0.118,9.654 l 1.774,6.172 c 2.345,8.136 6.119,11.61 12.611,11.61 2.926,0 4.881,-0.699 5.985,-2.141 C 1.316,7.782 1.352,4.713 0,0 m 15.842,17.505 c -3.147,4.148 -9.308,6.247 -18.304,6.247 -17.454,0 -28.533,-7.774 -32.924,-23.103 l -2.149,-7.462 c -2.078,-7.26 -1.672,-12.867 1.213,-16.661 3.147,-4.148 9.308,-6.248 18.313,-6.248 17.453,0 28.525,7.774 32.915,23.103 l 2.149,7.462 c 2.086,7.252 1.681,12.858 -1.213,16.662"
             style="fill:#ffffff;fill-opacity:1;fill-rule:nonzero;stroke:none"
             id="path94" />
        </g>
        <g
           id="g96"
           transform="translate(900.2148,544.6634)">
          <path
             d="m 0,0 -8.202,-0.235 c -2.059,0 -3.962,-0.089 -5.486,1.541 -1.017,1.087 -1.708,2.891 -1.324,4.71 1.096,5.182 7.05,5.952 11.966,5.952 h 6.527 z m 23.293,35.122 c -1.285,2.386 -3.651,4.089 -7.226,5.203 -2.734,0.834 -6.219,1.331 -10.38,1.475 -0.151,0 -15.072,0.237 -24.063,-1.516 L -21.24,30.14 c 9.066,1.029 17.66,1.322 21.372,1.204 4.025,-0.134 5.943,-0.657 6.839,-1.871 0.774,-1.046 0.841,-2.611 0.004,-5.38 L 6.423,22.085 H 0.049 c -17.802,0 -28.31,-2.275 -31.565,-14.248 -1.248,-4.604 -0.667,-9.424 1.94,-12.822 2.795,-3.651 6.573,-5.425 13.052,-5.425 h 30.059 l 9.713,33.399 c 1.583,5.286 1.603,9.249 0.045,12.133"
             style="fill:#ffffff;fill-opacity:1;fill-rule:nonzero;stroke:none"
             id="path98" />
        </g>
        <g
           id="g100"
           transform="translate(854.6061,585.3584)">
          <path
             d="M 0,0 -5.502,-19.315 H -20.561 L -15.06,0 H -31.999 L -46.63,-51.105 h 16.905 l 5.833,20.149 h 15.068 l -5.832,-20.149 H 2.308 L 16.931,0 Z"
             style="fill:#ffffff;fill-opacity:1;fill-rule:nonzero;stroke:none"
             id="path102" />
        </g>
        <g
           id="g104"
           transform="translate(798.0895,592.5513)">
          <path
             d="m 0,0 c -1.874,-17.925 -12.767,-33.212 -28.132,-41.38 -0.434,-0.231 -0.837,0.352 -0.459,0.664 11.89,9.862 19.666,24.386 20.425,40.716 h -15.079 c -1.858,-13.884 -10.621,-25.622 -22.778,-31.752 -0.428,-0.215 -0.813,0.349 -0.455,0.665 8.767,7.739 14.496,18.751 15.215,31.087 h -15.114 c -1.069,-6.301 -4.297,-11.762 -8.45,-16.307 -10.211,-11.175 -26.7,-12.414 -34.7,-11.788 0,0 -0.378,0.061 -0.496,-0.238 -0.128,-0.321 0.231,-0.523 0.231,-0.523 13.302,-7.467 23.889,-14.532 43.172,-28.718 4.737,-3.483 9.213,-4.49 13.915,-3.389 30.061,7.045 47.552,38.133 47.74,60.963 z"
             style="fill:#ec6608;fill-opacity:1;fill-rule:nonzero;stroke:none"
             id="path106" />
        </g>
      </g>
    </g>
  </g>
</svg>
